<mxfile host="app.diagrams.net" agent="Mozilla/5.0 (Windows NT 10.0; Win64; x64) AppleWebKit/537.36 (KHTML, like Gecko) Chrome/126.0.0.0 Safari/537.36 Avast/126.0.0.0" version="28.2.0">
  <diagram name="Page-1" id="MJIfw9Xfixav2o8gxMMa">
    <mxGraphModel dx="1506" dy="1131" grid="1" gridSize="10" guides="1" tooltips="1" connect="1" arrows="1" fold="1" page="1" pageScale="1" pageWidth="1100" pageHeight="850" math="0" shadow="0">
      <root>
        <mxCell id="0" />
        <mxCell id="1" parent="0" />
        <mxCell id="7YQjvosz25pRn5sGRjC9-1" value="" style="rounded=0;whiteSpace=wrap;html=1;fillColor=light-dark(#FFFFFF,#FFFFFF);movable=0;resizable=0;rotatable=0;deletable=0;editable=0;locked=1;connectable=0;" parent="1" vertex="1">
          <mxGeometry x="40" y="40" width="1040" height="770" as="geometry" />
        </mxCell>
        <mxCell id="7YQjvosz25pRn5sGRjC9-2" value="" style="rounded=0;whiteSpace=wrap;html=1;fillColor=light-dark(#000000,#D5FFB7);" parent="1" vertex="1">
          <mxGeometry x="40" y="60" width="200" height="750" as="geometry" />
        </mxCell>
        <mxCell id="7YQjvosz25pRn5sGRjC9-3" value="" style="rounded=0;whiteSpace=wrap;html=1;fillColor=light-dark(#FFFFFF,#FFFFFF);" parent="1" vertex="1">
          <mxGeometry x="50" y="80" width="170" height="100" as="geometry" />
        </mxCell>
        <mxCell id="7YQjvosz25pRn5sGRjC9-4" value="" style="shape=umlDestroy;whiteSpace=wrap;html=1;strokeWidth=1;targetShapes=umlLifeline;fillColor=default;strokeColor=light-dark(#000000,#000000);" parent="1" vertex="1">
          <mxGeometry x="50" y="80" width="170" height="100" as="geometry" />
        </mxCell>
        <mxCell id="7YQjvosz25pRn5sGRjC9-5" value="Logo" style="text;html=1;align=center;verticalAlign=middle;whiteSpace=wrap;rounded=0;fontColor=light-dark(#000000,#000000);fontSize=15;" parent="1" vertex="1">
          <mxGeometry x="105" y="90" width="60" height="30" as="geometry" />
        </mxCell>
        <mxCell id="7YQjvosz25pRn5sGRjC9-6" value="" style="edgeStyle=orthogonalEdgeStyle;rounded=0;orthogonalLoop=1;jettySize=auto;html=1;" parent="1" source="7YQjvosz25pRn5sGRjC9-27" target="7YQjvosz25pRn5sGRjC9-11" edge="1">
          <mxGeometry relative="1" as="geometry" />
        </mxCell>
        <mxCell id="7YQjvosz25pRn5sGRjC9-7" value="&lt;b&gt;Home&lt;/b&gt;" style="text;html=1;align=left;verticalAlign=middle;whiteSpace=wrap;rounded=0;fontColor=light-dark(#000000,#000000);fontSize=17;" parent="1" vertex="1">
          <mxGeometry x="51" y="209.5" width="80" height="30" as="geometry" />
        </mxCell>
        <mxCell id="7YQjvosz25pRn5sGRjC9-8" value="&lt;b&gt;Service&lt;/b&gt;" style="text;html=1;align=left;verticalAlign=middle;whiteSpace=wrap;rounded=0;fontColor=light-dark(#000000,#000000);fontSize=17;" parent="1" vertex="1">
          <mxGeometry x="54" y="274" width="80" height="30" as="geometry" />
        </mxCell>
        <mxCell id="7YQjvosz25pRn5sGRjC9-9" value="&lt;b&gt;Therapists&lt;/b&gt;" style="text;html=1;align=left;verticalAlign=middle;whiteSpace=wrap;rounded=0;fontColor=light-dark(#000000,#000000);fontSize=17;" parent="1" vertex="1">
          <mxGeometry x="51" y="367" width="119" height="30" as="geometry" />
        </mxCell>
        <mxCell id="7YQjvosz25pRn5sGRjC9-10" value="&lt;b&gt;Ayurvedic Therapy&lt;/b&gt;" style="text;html=1;align=left;verticalAlign=middle;whiteSpace=wrap;rounded=0;fontColor=light-dark(#000000,#000000);fontSize=17;" parent="1" vertex="1">
          <mxGeometry x="71" y="304" width="169" height="30" as="geometry" />
        </mxCell>
        <mxCell id="7YQjvosz25pRn5sGRjC9-11" value="&lt;b&gt;Yoga &amp;amp; Meditation&lt;/b&gt;" style="text;html=1;align=left;verticalAlign=middle;whiteSpace=wrap;rounded=0;fontColor=light-dark(#000000,#000000);fontSize=17;" parent="1" vertex="1">
          <mxGeometry x="71" y="334" width="159" height="30" as="geometry" />
        </mxCell>
        <mxCell id="7YQjvosz25pRn5sGRjC9-12" value="&lt;b&gt;Contact Us&lt;/b&gt;" style="text;html=1;align=left;verticalAlign=middle;whiteSpace=wrap;rounded=0;fontColor=light-dark(#000000,#000000);fontSize=17;" parent="1" vertex="1">
          <mxGeometry x="51" y="440" width="120" height="30" as="geometry" />
        </mxCell>
        <mxCell id="7YQjvosz25pRn5sGRjC9-27" value="&lt;b&gt;About&lt;/b&gt;" style="text;html=1;align=left;verticalAlign=middle;whiteSpace=wrap;rounded=0;fontColor=light-dark(#000000,#000000);fontSize=17;" parent="1" vertex="1">
          <mxGeometry x="51" y="244" width="80" height="30" as="geometry" />
        </mxCell>
        <mxCell id="7YQjvosz25pRn5sGRjC9-28" value="&lt;b&gt;Register / Login&lt;/b&gt;" style="text;html=1;align=left;verticalAlign=middle;whiteSpace=wrap;rounded=0;fontColor=light-dark(#000000,#000000);fontSize=17;" parent="1" vertex="1">
          <mxGeometry x="51" y="478.5" width="189" height="30" as="geometry" />
        </mxCell>
        <mxCell id="7YQjvosz25pRn5sGRjC9-29" value="&lt;b&gt;Knowledge Center&lt;/b&gt;" style="text;html=1;align=left;verticalAlign=middle;whiteSpace=wrap;rounded=0;fontColor=light-dark(#000000,#000000);fontSize=17;" parent="1" vertex="1">
          <mxGeometry x="52" y="403.5" width="178" height="30" as="geometry" />
        </mxCell>
        <mxCell id="7YQjvosz25pRn5sGRjC9-32" value="&lt;b&gt;Client Dashboard&lt;/b&gt;" style="text;html=1;align=left;verticalAlign=middle;whiteSpace=wrap;rounded=0;fontColor=light-dark(#000000,#000000);fontSize=17;" parent="1" vertex="1">
          <mxGeometry x="51" y="516.5" width="166" height="30" as="geometry" />
        </mxCell>
        <mxCell id="7YQjvosz25pRn5sGRjC9-33" value="&lt;b&gt;Therapist Dashboard&lt;/b&gt;" style="text;html=1;align=left;verticalAlign=middle;whiteSpace=wrap;rounded=0;fontColor=light-dark(#000000,#000000);fontSize=17;" parent="1" vertex="1">
          <mxGeometry x="51" y="557.5" width="199" height="30" as="geometry" />
        </mxCell>
        <mxCell id="7YQjvosz25pRn5sGRjC9-34" value="&lt;b&gt;Admin Dashboard&lt;/b&gt;" style="text;html=1;align=left;verticalAlign=middle;whiteSpace=wrap;rounded=0;fontColor=light-dark(#000000,#000000);fontSize=17;" parent="1" vertex="1">
          <mxGeometry x="51.5" y="598.5" width="176" height="30" as="geometry" />
        </mxCell>
        <mxCell id="c9pFDxgWKYqPfjZnPTOq-1" value="" style="edgeStyle=orthogonalEdgeStyle;rounded=0;orthogonalLoop=1;jettySize=auto;html=1;" parent="1" edge="1">
          <mxGeometry relative="1" as="geometry">
            <mxPoint x="415" y="274" as="targetPoint" />
          </mxGeometry>
        </mxCell>
        <mxCell id="ezkjjZ4eAbXDMJmgoiN_-5" value="" style="rounded=0;whiteSpace=wrap;html=1;fillColor=light-dark(#FFFFFF,#CCFFE6);" vertex="1" parent="1">
          <mxGeometry x="270" y="125" width="195" height="45" as="geometry" />
        </mxCell>
        <mxCell id="ezkjjZ4eAbXDMJmgoiN_-6" value="Dashboard Overview" style="text;html=1;align=center;verticalAlign=middle;whiteSpace=wrap;rounded=0;fontSize=18;fontStyle=1;fontColor=light-dark(#000000,#000000);" vertex="1" parent="1">
          <mxGeometry x="272.5" y="132.5" width="190" height="30" as="geometry" />
        </mxCell>
        <mxCell id="ezkjjZ4eAbXDMJmgoiN_-7" value="Welcome, Admin" style="text;html=1;align=left;verticalAlign=middle;whiteSpace=wrap;rounded=0;fontColor=light-dark(#FFFFFF,#006633);fontSize=28;fontStyle=1;labelBackgroundColor=none;textShadow=0;" vertex="1" parent="1">
          <mxGeometry x="270" y="71" width="360" height="50" as="geometry" />
        </mxCell>
        <mxCell id="ezkjjZ4eAbXDMJmgoiN_-8" value="Manage Therapists" style="text;html=1;align=left;verticalAlign=middle;whiteSpace=wrap;rounded=0;fontColor=light-dark(#000000,#000000);fontSize=17;" vertex="1" parent="1">
          <mxGeometry x="272.5" y="391.5" width="237.5" height="30" as="geometry" />
        </mxCell>
        <mxCell id="ezkjjZ4eAbXDMJmgoiN_-10" value="" style="rounded=0;whiteSpace=wrap;html=1;fillColor=light-dark(#FFFFFF,#FFFFFF);strokeColor=light-dark(#000000,#000000);" vertex="1" parent="1">
          <mxGeometry x="272.5" y="430" width="677.5" height="78" as="geometry" />
        </mxCell>
        <mxCell id="ezkjjZ4eAbXDMJmgoiN_-12" value="" style="endArrow=none;html=1;rounded=0;" edge="1" parent="1" source="ezkjjZ4eAbXDMJmgoiN_-10" target="ezkjjZ4eAbXDMJmgoiN_-10">
          <mxGeometry width="50" height="50" relative="1" as="geometry">
            <mxPoint x="410" y="567" as="sourcePoint" />
            <mxPoint x="460" y="527" as="targetPoint" />
          </mxGeometry>
        </mxCell>
        <mxCell id="ezkjjZ4eAbXDMJmgoiN_-14" value="" style="endArrow=none;html=1;rounded=0;strokeColor=light-dark(#000000,#000000);exitX=1;exitY=0.401;exitDx=0;exitDy=0;exitPerimeter=0;" edge="1" parent="1" source="ezkjjZ4eAbXDMJmgoiN_-10">
          <mxGeometry relative="1" as="geometry">
            <mxPoint x="980" y="546" as="sourcePoint" />
            <mxPoint x="270" y="466" as="targetPoint" />
            <Array as="points" />
          </mxGeometry>
        </mxCell>
        <mxCell id="ezkjjZ4eAbXDMJmgoiN_-15" value="" style="endArrow=none;html=1;rounded=0;strokeColor=light-dark(#000000,#000000);entryX=0.117;entryY=0.003;entryDx=0;entryDy=0;entryPerimeter=0;" edge="1" parent="1">
          <mxGeometry relative="1" as="geometry">
            <mxPoint x="400" y="508" as="sourcePoint" />
            <mxPoint x="399.99749999999995" y="429.99799999999993" as="targetPoint" />
          </mxGeometry>
        </mxCell>
        <mxCell id="ezkjjZ4eAbXDMJmgoiN_-16" value="" style="endArrow=none;html=1;rounded=0;strokeColor=light-dark(#000000,#000000);entryX=0.117;entryY=0.003;entryDx=0;entryDy=0;entryPerimeter=0;" edge="1" parent="1">
          <mxGeometry relative="1" as="geometry">
            <mxPoint x="580" y="508" as="sourcePoint" />
            <mxPoint x="580" y="431" as="targetPoint" />
          </mxGeometry>
        </mxCell>
        <mxCell id="ezkjjZ4eAbXDMJmgoiN_-17" value="" style="endArrow=none;html=1;rounded=0;strokeColor=light-dark(#000000,#000000);entryX=0.117;entryY=0.003;entryDx=0;entryDy=0;entryPerimeter=0;" edge="1" parent="1">
          <mxGeometry relative="1" as="geometry">
            <mxPoint x="760" y="508" as="sourcePoint" />
            <mxPoint x="760" y="431" as="targetPoint" />
          </mxGeometry>
        </mxCell>
        <mxCell id="ezkjjZ4eAbXDMJmgoiN_-19" value="Name" style="text;html=1;align=center;verticalAlign=middle;whiteSpace=wrap;rounded=0;fontColor=light-dark(#000000,#000000);fontSize=14;" vertex="1" parent="1">
          <mxGeometry x="300" y="435" width="60" height="30" as="geometry" />
        </mxCell>
        <mxCell id="ezkjjZ4eAbXDMJmgoiN_-20" value="Specialty" style="text;html=1;align=center;verticalAlign=middle;whiteSpace=wrap;rounded=0;fontColor=light-dark(#000000,#000000);fontSize=14;" vertex="1" parent="1">
          <mxGeometry x="450" y="435" width="90" height="30" as="geometry" />
        </mxCell>
        <mxCell id="ezkjjZ4eAbXDMJmgoiN_-21" value="Status" style="text;html=1;align=center;verticalAlign=middle;whiteSpace=wrap;rounded=0;fontColor=light-dark(#000000,#000000);fontSize=14;" vertex="1" parent="1">
          <mxGeometry x="640" y="435" width="60" height="30" as="geometry" />
        </mxCell>
        <mxCell id="ezkjjZ4eAbXDMJmgoiN_-22" value="Action" style="text;html=1;align=center;verticalAlign=middle;whiteSpace=wrap;rounded=0;fontColor=light-dark(#000000,#000000);fontSize=14;" vertex="1" parent="1">
          <mxGeometry x="830" y="435" width="60" height="30" as="geometry" />
        </mxCell>
        <mxCell id="ezkjjZ4eAbXDMJmgoiN_-23" value="Manage Clients" style="text;html=1;align=left;verticalAlign=middle;whiteSpace=wrap;rounded=0;fontColor=light-dark(#000000,#000000);fontSize=17;" vertex="1" parent="1">
          <mxGeometry x="272.5" y="521.5" width="237.5" height="30" as="geometry" />
        </mxCell>
        <mxCell id="ezkjjZ4eAbXDMJmgoiN_-24" value="" style="rounded=0;whiteSpace=wrap;html=1;fillColor=light-dark(#FFFFFF,#FFFFFF);strokeColor=light-dark(#000000,#000000);" vertex="1" parent="1">
          <mxGeometry x="272.5" y="556" width="677.5" height="78" as="geometry" />
        </mxCell>
        <mxCell id="ezkjjZ4eAbXDMJmgoiN_-25" value="" style="endArrow=none;html=1;rounded=0;" edge="1" parent="1" source="ezkjjZ4eAbXDMJmgoiN_-24" target="ezkjjZ4eAbXDMJmgoiN_-24">
          <mxGeometry width="50" height="50" relative="1" as="geometry">
            <mxPoint x="410" y="693" as="sourcePoint" />
            <mxPoint x="460" y="653" as="targetPoint" />
          </mxGeometry>
        </mxCell>
        <mxCell id="ezkjjZ4eAbXDMJmgoiN_-26" value="" style="endArrow=none;html=1;rounded=0;strokeColor=light-dark(#000000,#000000);exitX=1;exitY=0.417;exitDx=0;exitDy=0;exitPerimeter=0;" edge="1" parent="1" source="ezkjjZ4eAbXDMJmgoiN_-24">
          <mxGeometry relative="1" as="geometry">
            <mxPoint x="980" y="672" as="sourcePoint" />
            <mxPoint x="270" y="592" as="targetPoint" />
            <Array as="points" />
          </mxGeometry>
        </mxCell>
        <mxCell id="ezkjjZ4eAbXDMJmgoiN_-27" value="" style="endArrow=none;html=1;rounded=0;strokeColor=light-dark(#000000,#000000);entryX=0.117;entryY=0.003;entryDx=0;entryDy=0;entryPerimeter=0;" edge="1" parent="1">
          <mxGeometry relative="1" as="geometry">
            <mxPoint x="400" y="634" as="sourcePoint" />
            <mxPoint x="399.99749999999995" y="555.9979999999999" as="targetPoint" />
          </mxGeometry>
        </mxCell>
        <mxCell id="ezkjjZ4eAbXDMJmgoiN_-28" value="" style="endArrow=none;html=1;rounded=0;strokeColor=light-dark(#000000,#000000);entryX=0.117;entryY=0.003;entryDx=0;entryDy=0;entryPerimeter=0;" edge="1" parent="1">
          <mxGeometry relative="1" as="geometry">
            <mxPoint x="580" y="634" as="sourcePoint" />
            <mxPoint x="580" y="557" as="targetPoint" />
          </mxGeometry>
        </mxCell>
        <mxCell id="ezkjjZ4eAbXDMJmgoiN_-29" value="" style="endArrow=none;html=1;rounded=0;strokeColor=light-dark(#000000,#000000);entryX=0.117;entryY=0.003;entryDx=0;entryDy=0;entryPerimeter=0;" edge="1" parent="1">
          <mxGeometry relative="1" as="geometry">
            <mxPoint x="760" y="634" as="sourcePoint" />
            <mxPoint x="760" y="557" as="targetPoint" />
          </mxGeometry>
        </mxCell>
        <mxCell id="ezkjjZ4eAbXDMJmgoiN_-30" value="Name" style="text;html=1;align=center;verticalAlign=middle;whiteSpace=wrap;rounded=0;fontColor=light-dark(#000000,#000000);fontSize=14;" vertex="1" parent="1">
          <mxGeometry x="300" y="561" width="60" height="30" as="geometry" />
        </mxCell>
        <mxCell id="ezkjjZ4eAbXDMJmgoiN_-31" value="Contact" style="text;html=1;align=center;verticalAlign=middle;whiteSpace=wrap;rounded=0;fontColor=light-dark(#000000,#000000);fontSize=14;" vertex="1" parent="1">
          <mxGeometry x="450" y="561" width="90" height="30" as="geometry" />
        </mxCell>
        <mxCell id="ezkjjZ4eAbXDMJmgoiN_-32" value="&amp;nbsp;Active Sessions" style="text;html=1;align=center;verticalAlign=middle;whiteSpace=wrap;rounded=0;fontColor=light-dark(#000000,#000000);fontSize=14;" vertex="1" parent="1">
          <mxGeometry x="600" y="561" width="140" height="30" as="geometry" />
        </mxCell>
        <mxCell id="ezkjjZ4eAbXDMJmgoiN_-33" value="Action" style="text;html=1;align=center;verticalAlign=middle;whiteSpace=wrap;rounded=0;fontColor=light-dark(#000000,#000000);fontSize=14;" vertex="1" parent="1">
          <mxGeometry x="830" y="561" width="60" height="30" as="geometry" />
        </mxCell>
        <mxCell id="ezkjjZ4eAbXDMJmgoiN_-34" value="View" style="text;html=1;align=center;verticalAlign=middle;whiteSpace=wrap;rounded=0;fontColor=light-dark(#000000,#000000);fontSize=14;fontStyle=4" vertex="1" parent="1">
          <mxGeometry x="815" y="597.5" width="90" height="30" as="geometry" />
        </mxCell>
        <mxCell id="ezkjjZ4eAbXDMJmgoiN_-35" value="Appointments Management" style="text;html=1;align=left;verticalAlign=middle;whiteSpace=wrap;rounded=0;fontColor=light-dark(#000000,#000000);fontSize=17;" vertex="1" parent="1">
          <mxGeometry x="272.5" y="652" width="237.5" height="30" as="geometry" />
        </mxCell>
        <mxCell id="ezkjjZ4eAbXDMJmgoiN_-36" value="" style="rounded=0;whiteSpace=wrap;html=1;fillColor=light-dark(#FFFFFF,#FFFFFF);strokeColor=light-dark(#000000,#000000);" vertex="1" parent="1">
          <mxGeometry x="272.5" y="686.5" width="677.5" height="77.5" as="geometry" />
        </mxCell>
        <mxCell id="ezkjjZ4eAbXDMJmgoiN_-37" value="" style="endArrow=none;html=1;rounded=0;" edge="1" parent="1" source="ezkjjZ4eAbXDMJmgoiN_-36" target="ezkjjZ4eAbXDMJmgoiN_-36">
          <mxGeometry width="50" height="50" relative="1" as="geometry">
            <mxPoint x="410" y="823.5" as="sourcePoint" />
            <mxPoint x="460" y="783.5" as="targetPoint" />
          </mxGeometry>
        </mxCell>
        <mxCell id="ezkjjZ4eAbXDMJmgoiN_-38" value="" style="endArrow=none;html=1;rounded=0;strokeColor=light-dark(#000000,#000000);exitX=0.999;exitY=0.413;exitDx=0;exitDy=0;exitPerimeter=0;" edge="1" parent="1" source="ezkjjZ4eAbXDMJmgoiN_-36">
          <mxGeometry relative="1" as="geometry">
            <mxPoint x="980" y="802.5" as="sourcePoint" />
            <mxPoint x="270" y="722.5" as="targetPoint" />
            <Array as="points" />
          </mxGeometry>
        </mxCell>
        <mxCell id="ezkjjZ4eAbXDMJmgoiN_-39" value="" style="endArrow=none;html=1;rounded=0;strokeColor=light-dark(#000000,#000000);entryX=0.117;entryY=0.003;entryDx=0;entryDy=0;entryPerimeter=0;" edge="1" parent="1">
          <mxGeometry relative="1" as="geometry">
            <mxPoint x="400" y="764" as="sourcePoint" />
            <mxPoint x="399.99749999999995" y="686.4979999999999" as="targetPoint" />
          </mxGeometry>
        </mxCell>
        <mxCell id="ezkjjZ4eAbXDMJmgoiN_-41" value="" style="endArrow=none;html=1;rounded=0;strokeColor=light-dark(#000000,#000000);entryX=0.117;entryY=0.003;entryDx=0;entryDy=0;entryPerimeter=0;" edge="1" parent="1">
          <mxGeometry relative="1" as="geometry">
            <mxPoint x="720" y="764" as="sourcePoint" />
            <mxPoint x="720" y="687.5" as="targetPoint" />
          </mxGeometry>
        </mxCell>
        <mxCell id="ezkjjZ4eAbXDMJmgoiN_-42" value="Date" style="text;html=1;align=center;verticalAlign=middle;whiteSpace=wrap;rounded=0;fontColor=light-dark(#000000,#000000);fontSize=14;" vertex="1" parent="1">
          <mxGeometry x="290" y="691.5" width="90" height="30" as="geometry" />
        </mxCell>
        <mxCell id="ezkjjZ4eAbXDMJmgoiN_-43" value="Client" style="text;html=1;align=center;verticalAlign=middle;whiteSpace=wrap;rounded=0;fontColor=light-dark(#000000,#000000);fontSize=14;" vertex="1" parent="1">
          <mxGeometry x="430" y="691.5" width="90" height="30" as="geometry" />
        </mxCell>
        <mxCell id="ezkjjZ4eAbXDMJmgoiN_-45" value="Status" style="text;html=1;align=center;verticalAlign=middle;whiteSpace=wrap;rounded=0;fontColor=light-dark(#000000,#000000);fontSize=14;" vertex="1" parent="1">
          <mxGeometry x="750" y="691.5" width="60" height="30" as="geometry" />
        </mxCell>
        <mxCell id="ezkjjZ4eAbXDMJmgoiN_-51" value="" style="rounded=0;whiteSpace=wrap;html=1;fontColor=light-dark(#FFFFFF,#FFFFFF);fillColor=light-dark(#FFFFFF,#FFFFFF);strokeColor=light-dark(#000000,#000000);" vertex="1" parent="1">
          <mxGeometry x="272.5" y="179" width="677.5" height="200" as="geometry" />
        </mxCell>
        <mxCell id="ezkjjZ4eAbXDMJmgoiN_-52" value="" style="shape=umlDestroy;whiteSpace=wrap;html=1;strokeWidth=1;targetShapes=umlLifeline;fillColor=default;strokeColor=light-dark(#000000,#000000);" vertex="1" parent="1">
          <mxGeometry x="272.5" y="179" width="677.5" height="200" as="geometry" />
        </mxCell>
        <mxCell id="ezkjjZ4eAbXDMJmgoiN_-53" value="Chart" style="text;html=1;align=center;verticalAlign=middle;whiteSpace=wrap;rounded=0;fontColor=light-dark(#000000,#000000);fontSize=15;" vertex="1" parent="1">
          <mxGeometry x="570" y="209" width="60" height="30" as="geometry" />
        </mxCell>
        <mxCell id="ezkjjZ4eAbXDMJmgoiN_-54" value="[Edit]" style="text;html=1;align=center;verticalAlign=middle;whiteSpace=wrap;rounded=0;fontColor=light-dark(#000000,#000000);fontSize=14;fontStyle=4" vertex="1" parent="1">
          <mxGeometry x="787" y="469" width="60" height="30" as="geometry" />
        </mxCell>
        <mxCell id="ezkjjZ4eAbXDMJmgoiN_-55" value="[Remove]" style="text;html=1;align=center;verticalAlign=middle;whiteSpace=wrap;rounded=0;fontColor=light-dark(#000000,#000000);fontSize=14;fontStyle=4" vertex="1" parent="1">
          <mxGeometry x="840" y="469" width="120" height="30" as="geometry" />
        </mxCell>
        <mxCell id="ezkjjZ4eAbXDMJmgoiN_-57" value="Active" style="text;html=1;align=center;verticalAlign=middle;whiteSpace=wrap;rounded=0;fontColor=light-dark(#000000,#000000);fontSize=14;fontStyle=0" vertex="1" parent="1">
          <mxGeometry x="630" y="469" width="90" height="30" as="geometry" />
        </mxCell>
        <mxCell id="ezkjjZ4eAbXDMJmgoiN_-58" value="" style="endArrow=none;html=1;rounded=0;strokeColor=light-dark(#000000,#000000);entryX=0.117;entryY=0.003;entryDx=0;entryDy=0;entryPerimeter=0;" edge="1" parent="1">
          <mxGeometry relative="1" as="geometry">
            <mxPoint x="549" y="763" as="sourcePoint" />
            <mxPoint x="549" y="686.5" as="targetPoint" />
          </mxGeometry>
        </mxCell>
        <mxCell id="ezkjjZ4eAbXDMJmgoiN_-59" value="Therapist" style="text;html=1;align=center;verticalAlign=middle;whiteSpace=wrap;rounded=0;fontColor=light-dark(#000000,#000000);fontSize=14;" vertex="1" parent="1">
          <mxGeometry x="580" y="691.5" width="90" height="30" as="geometry" />
        </mxCell>
        <mxCell id="ezkjjZ4eAbXDMJmgoiN_-60" value="" style="endArrow=none;html=1;rounded=0;strokeColor=light-dark(#000000,#000000);entryX=0.117;entryY=0.003;entryDx=0;entryDy=0;entryPerimeter=0;" edge="1" parent="1">
          <mxGeometry relative="1" as="geometry">
            <mxPoint x="849.5" y="763" as="sourcePoint" />
            <mxPoint x="849.5" y="686.5" as="targetPoint" />
          </mxGeometry>
        </mxCell>
        <mxCell id="ezkjjZ4eAbXDMJmgoiN_-61" value="Action" style="text;html=1;align=center;verticalAlign=middle;whiteSpace=wrap;rounded=0;fontColor=light-dark(#000000,#000000);fontSize=14;" vertex="1" parent="1">
          <mxGeometry x="880" y="691.5" width="60" height="30" as="geometry" />
        </mxCell>
        <mxCell id="ezkjjZ4eAbXDMJmgoiN_-62" value="" style="rounded=1;whiteSpace=wrap;html=1;fillColor=#60a917;fontColor=#ffffff;strokeColor=#2D7600;" vertex="1" parent="1">
          <mxGeometry x="970" y="178" width="100" height="50" as="geometry" />
        </mxCell>
        <mxCell id="ezkjjZ4eAbXDMJmgoiN_-63" value="" style="rounded=1;whiteSpace=wrap;html=1;fillColor=#60a917;fontColor=#ffffff;strokeColor=#2D7600;" vertex="1" parent="1">
          <mxGeometry x="970" y="251" width="100" height="50" as="geometry" />
        </mxCell>
        <mxCell id="ezkjjZ4eAbXDMJmgoiN_-64" value="" style="rounded=1;whiteSpace=wrap;html=1;fillColor=#60a917;fontColor=#ffffff;strokeColor=#2D7600;" vertex="1" parent="1">
          <mxGeometry x="970" y="327" width="100" height="50" as="geometry" />
        </mxCell>
        <mxCell id="ezkjjZ4eAbXDMJmgoiN_-65" value="" style="rounded=1;whiteSpace=wrap;html=1;fillColor=#60a917;fontColor=#ffffff;strokeColor=#2D7600;" vertex="1" parent="1">
          <mxGeometry x="970" y="407" width="100" height="50" as="geometry" />
        </mxCell>
        <mxCell id="ezkjjZ4eAbXDMJmgoiN_-66" value="Appointment Trends" style="text;html=1;align=center;verticalAlign=middle;whiteSpace=wrap;rounded=0;" vertex="1" parent="1">
          <mxGeometry x="990" y="187" width="60" height="30" as="geometry" />
        </mxCell>
        <mxCell id="ezkjjZ4eAbXDMJmgoiN_-67" value="Top Therapists by Bookings" style="text;html=1;align=center;verticalAlign=middle;whiteSpace=wrap;rounded=0;" vertex="1" parent="1">
          <mxGeometry x="985" y="261" width="70" height="30" as="geometry" />
        </mxCell>
        <mxCell id="ezkjjZ4eAbXDMJmgoiN_-68" value="Revenue Breakdown" style="text;html=1;align=center;verticalAlign=middle;whiteSpace=wrap;rounded=0;" vertex="1" parent="1">
          <mxGeometry x="985" y="337" width="70" height="30" as="geometry" />
        </mxCell>
        <mxCell id="ezkjjZ4eAbXDMJmgoiN_-69" value="Client Growth" style="text;html=1;align=center;verticalAlign=middle;whiteSpace=wrap;rounded=0;" vertex="1" parent="1">
          <mxGeometry x="985" y="417" width="70" height="30" as="geometry" />
        </mxCell>
      </root>
    </mxGraphModel>
  </diagram>
</mxfile>
